# xmcd
#
# Track frame offsets:
#	150
#	17247
#	33348
#	48562
#	66718
#	87203
#
# Disc length: 1462 seconds
#
# Revision: 1
# Processed by: cddbd v1.5.2PL0 Copyright (c) Steve Scherf et al.
# Submitted via: EasyCDDAExtractor 10.0.2.1
#
DISCID=4f05b406
DTITLE=Various Artist - Love Songs - zum Valentinstag
DYEAR=2007
DGENRE=Love Songs
TTITLE0=Natalie Cole - You Gotta Be
TTITLE1=Anna Ternheim - Today Is A Good Day
TTITLE2=Christina Bjoedal - How Peaceful
TTITLE3=Vienna Teng - Whatever You Want
TTITLE4=Silje Nergaard - Before You Called Me Yours
TTITLE5=Tina Dico - Tina Dico_In The Red
EXTD=YEAR: 2007
EXTT0=
EXTT1=
EXTT2=
EXTT3=
EXTT4=
EXTT5=
PLAYORDER=
